<svg xmlns="http://www.w3.org/2000/svg" version="1.1" xmlns:xlink="http://www.w3.org/1999/xlink" width="1500" height="1500" viewBox="0 0 1500 1500"><rect width="1500" height="1500" x="0" y="0" id="background" stroke="transparent" fill="#e8e8e8"></rect><svg xml:space="preserve" width="1000" height="1000" data-version="2" data-id="lg_Y9iXwLJQTZGlwNTjbZ" viewBox="0 0 554 292" x="250" y="250"><rect width="100%" height="100%" fill="transparent"></rect><path d="M39.324 206.575H6.984q-1.41 0-1.41-1.41l.57-197.86q0-1.12 1.12-1.12h92.25q1.41 0 1.41 1.12v32.49q0 1.12-1.13 1.12h-59.06v44.72h59.06q1.13 0 1.13 1.41l.28 32.62q0 1.13-1.41 1.13h-59.06v84.37q0 1.41-1.41 1.41"></path><rect width="95.63" height="200.39" x="-47.81" y="-100.19" fill="none" rx="0" ry="0" transform="translate(53.89 106.88)"></rect><path d="M161.664 209.385q-15.33 0-28.27-7.88-12.79-7.87-20.6-21.02-7.8-13.15-7.8-28.9l.28-91.26q0-16.03 7.73-28.83 7.6-12.94 20.53-20.74 12.94-7.81 28.13-7.81 15.75 0 28.26 7.74 12.66 7.73 20.32 20.74 7.67 13.01 7.67 28.9l.28 91.26q0 15.75-7.59 28.83-7.74 13.22-20.54 21.09-12.79 7.88-28.4 7.88m0-34.74q8.72 0 15.19-7.1 6.46-7.1 6.46-15.96l-.28-91.26q0-9.57-6.04-16.18-6.05-6.6-15.33-6.6-8.86 0-15.19 6.46-6.33 6.47-6.33 16.32v91.26q0 9.42 6.33 16.24 6.33 6.82 15.19 6.82"></path><rect width="113.2" height="206.44" x="-56.6" y="-103.22" fill="none" rx="0" ry="0" transform="translate(162.1 106.67)"></rect><path d="M255.164 206.575h-32.62q-1.13 0-1.13-1.41l.57-197.86q0-1.12 1.12-1.12h58.22q15.61 0 28.69 7.59 13.08 7.59 20.88 20.39 7.8 12.8 7.8 28.97 0 10.55-3.23 19.12-3.23 8.58-7.52 14.49-4.29 5.9-7.81 8.72 15.61 17.29 15.61 40.64l.28 59.06q0 1.41-1.4 1.41h-32.63q-1.12 0-1.12-.85v-59.62q0-10.41-7.32-18-7.31-7.6-18-7.6h-18.98l-.28 84.66q0 1.41-1.13 1.41m26.16-165.94h-24.75v45.28h24.75q8.86 0 15.82-6.61 6.96-6.61 6.96-16.17 0-9.14-6.75-15.82t-16.03-6.68"></path><rect width="117.28" height="200.39" x="-58.64" y="-100.19" fill="none" rx="0" ry="0" transform="translate(280.55 106.88)"></rect><path d="M441.484 206.575h-107.44q-1.4 0-1.4-1.41l.28-31.36 70.59-134.86h-66.79q-1.27 0-1.27-1.12V7.585q0-1.4 1.27-1.4h104.2q1.41 0 1.41 1.4v31.08l-70.18 134.16h69.33q1.13 0 1.13 1.54l.28 30.8q0 1.41-1.41 1.41"></path><rect width="110.25" height="200.39" x="-55.13" y="-100.19" fill="none" rx="0" ry="0" transform="translate(388.27 106.88)"></rect><path d="m432.754 205.165 35.72-197.86q.28-1.12 1.41-1.12h41.76q1.13 0 1.41 1.12l34.31 197.86q.14 1.41-1.12 1.41h-31.92q-1.41 0-1.55-1.41l-3.1-21.09h-39.23l-3.09 21.09q-.14 1.41-1.41 1.41h-32.06q-1.13 0-1.13-1.41m56.39-132.75-12.93 80.86h27.7l-11.81-80.86-1.69-10.69Z"></path><rect width="114.67" height="200.39" x="-57.34" y="-100.19" fill="none" rx="0" ry="0" transform="translate(490.59 106.88)"></rect><path fill="#4c4c4c" d="M157.624 288.025q-6.29 0-8.97-1.98-2.69-1.98-2.88-6.48-.15-2.82-.21-6.63-.05-3.8 0-7.65.06-3.85.21-6.7.19-4.61 2.96-6.59 2.76-1.98 8.89-1.98 5.79 0 8.38 1.94 2.59 1.94 2.85 6.4.08 1.33.16 4.64.07 3.32-.23 7.05h-18.25q0 2.4.04 4.87.04 2.48.15 5.15.04 2.09 1.6 2.89 1.57.8 5.15.8 3.54 0 4.99-.8 1.44-.8 1.6-2.89.11-2.1 0-5.72h4.72q.19 1.11.17 2.57-.02 1.47-.1 2.65-.26 4.5-2.72 6.48-2.46 1.98-8.51 1.98m-7.09-22.02h13.6q.08-2.59.08-4.95 0-2.36-.15-3.24-.16-1.9-1.64-2.72-1.49-.82-4.8-.82-3.7 0-5.28.82t-1.62 2.72q-.11 2.21-.17 4.23-.05 2.02-.02 3.96"></path><rect width="23.53" height="38.01" x="-11.76" y="-19" fill="none" rx="0" ry="0" transform="translate(157.79 269.52)"></rect><path fill="#4c4c4c" d="M185.464 288.025q-6.13 0-8.51-1.98t-2.57-6.48q-.08-1.18-.1-2.65-.02-1.46.13-2.57h4.46q-.08 1.76-.06 3.22.02 1.47.06 2.5.04 2.09 1.47 2.89 1.42.8 5.12.8 3.77 0 5.31-.8 1.54-.8 1.66-2.89.11-1.3.15-1.93.04-.63 0-1.81-.11-1.94-1.03-3-.91-1.07-3.96-1.53l-4.45-1.03q-3.43-.72-5.3-1.82-1.86-1.11-2.63-2.88-.76-1.77-.91-4.48-.11-1.37.19-3 .08-4.61 2.5-6.59 2.41-1.98 8.81-1.98 6.13 0 8.51 1.94t2.61 6.4q0 1.14-.02 2.61-.01 1.46-.13 2.57h-4.61q.19-1.34.17-3.05-.02-1.71-.09-2.67-.04-2.01-1.39-2.78-1.35-.76-5.05-.76-3.73 0-5.08.76-1.35.77-1.51 2.78-.03.96-.11 1.58-.08.63-.04 1.74.12 1.33.4 2.36.29 1.03 1.3 1.69 1 .67 3.29 1.01l4.27.88q4.64.95 6.78 2.95 2.13 2 2.13 6.04 0 .84-.02 1.79-.02.95-.1 1.83-.26 4.45-2.8 6.39-2.53 1.95-8.85 1.95"></path><rect width="23" height="38.01" x="-11.5" y="-19" fill="none" rx="0" ry="0" transform="translate(186.24 269.52)"></rect><path fill="#4c4c4c" d="M214.944 288.025q-5.94 0-8.02-1.98-2.07-1.98-2.07-6.48v-24.79h-3.66v-4.27h3.77v-10.51h4.84v10.51h8.38v4.27h-8.42v25.32q0 2.1.87 2.9.88.8 4.42.8 1.45 0 2.23-.06t1.81-.09v4.07q-.91.15-1.98.23-1.07.08-2.17.08"></path><rect width="17.9" height="48.03" x="-8.95" y="-24.02" fill="none" rx="0" ry="0" transform="translate(210.64 264.51)"></rect><path fill="#4c4c4c" d="M244.614 267.155h-6.74v-6.82h6.74Zm0 20.41h-6.74v-6.82h6.74Z"></path><rect width="6.74" height="27.23" x="-3.37" y="-13.62" fill="none" rx="0" ry="0" transform="translate(241.74 274.45)"></rect><path fill="#4c4c4c" d="M290.774 287.565h-24q-.04-2.13-.09-3.35-.06-1.22-.08-2.71-.02-1.48.06-4.3.07-4.46 1.45-7.46 1.37-3.01 3.56-5.07 2.19-2.06 4.7-3.62l3.96-2.32q3.12-1.68 3.98-3.56.86-1.89 1.05-3.87.34-4.84 0-9.63-.15-2.14-1.73-3.17-1.58-1.02-5.24-1.02-3.47 0-4.97 1.02-1.51 1.03-1.62 3.17-.08 2.66-.06 5.33.02 2.66.21 5.37h-5.29q-.12-2.59-.19-5.2-.08-2.61.04-4.59.26-5.33 3.04-7.62 2.78-2.28 8.95-2.28 6.48 0 9.2 2.28 2.72 2.29 2.99 7.62.15 1.87.15 4.4 0 2.53-.15 4.28-.38 4.8-2.46 7.64-2.07 2.84-6.3 5.2l-4.11 2.44q-2.9 1.52-4.33 4.47-1.42 2.95-1.42 6.19v5.22h18.7Z"></path><rect width="24.43" height="54.88" x="-12.21" y="-27.44" fill="none" rx="0" ry="0" transform="translate(279.13 260.63)"></rect><path fill="#4c4c4c" d="M310.314 288.055q-6.4 0-9.79-2.57-3.39-2.57-3.43-7.29-.15-8.65-.15-17.84 0-9.2.15-17.81.04-4.8 3.43-7.33 3.39-2.53 9.79-2.53 6.28 0 9.69 2.53 3.41 2.53 3.48 7.33.31 8.61.31 17.84 0 9.24-.31 17.81-.07 4.72-3.48 7.29-3.41 2.57-9.69 2.57m0-4.83q7.76 0 7.88-4.08.38-10.05.34-19.78-.04-9.73-.34-17.77-.23-4.11-7.88-4.11-3.7 0-5.78 1.04-2.07 1.05-2.15 3.07-.26 9.83-.26 19.54 0 9.71.26 18.01.08 1.98 2.15 3.03 2.08 1.05 5.78 1.05"></path><rect width="26.85" height="55.37" x="-13.43" y="-27.68" fill="none" rx="0" ry="0" transform="translate(310.87 260.87)"></rect><path fill="#4c4c4c" d="M355.064 287.565h-24q-.04-2.13-.09-3.35-.06-1.22-.08-2.71-.02-1.48.06-4.3.07-4.46 1.44-7.46 1.38-3.01 3.57-5.07 2.19-2.06 4.7-3.62l3.96-2.32q3.12-1.68 3.98-3.56.86-1.89 1.05-3.87.34-4.84 0-9.63-.15-2.14-1.74-3.17-1.58-1.02-5.23-1.02-3.47 0-4.97 1.02-1.51 1.03-1.62 3.17-.08 2.66-.06 5.33.02 2.66.21 5.37h-5.29q-.12-2.59-.19-5.2-.08-2.61.04-4.59.26-5.33 3.04-7.62 2.78-2.28 8.95-2.28 6.48 0 9.2 2.28 2.72 2.29 2.99 7.62.15 1.87.15 4.4 0 2.53-.15 4.28-.38 4.8-2.46 7.64-2.07 2.84-6.3 5.2l-4.11 2.44q-2.9 1.52-4.33 4.47-1.42 2.95-1.42 6.19v5.22h18.7Z"></path><rect width="24.43" height="54.88" x="-12.21" y="-27.44" fill="none" rx="0" ry="0" transform="translate(343.42 260.63)"></rect><path fill="#4c4c4c" d="M373.954 288.055q-6.55 0-9.49-2.32-2.93-2.32-3.12-7.65-.15-2.48-.17-4.67-.02-2.19.13-4.51h5.3q-.12 2.32-.14 4.99-.02 2.66.17 4.87.16 2.29 1.76 3.37 1.6 1.09 5.29 1.09 3.66 0 5.24-1.09 1.58-1.08 1.77-3.37.57-7.81.11-15.54-.15-2.21-1.62-3.23-1.46-1.03-4.74-1.03-3.31 0-5.22 1.16-1.9 1.16-1.98 3.18h-5.1v-30.13h23.58v5.14h-18.29v18.86h1.45q.84-1.3 2.76-2.17 1.93-.88 4.67-.88 4.91 0 7.27 2.32 2.36 2.33 2.52 6.63.3 4.15.24 7.79-.05 3.64-.36 7.22-.34 5.33-3.12 7.65-2.78 2.32-8.91 2.32"></path><rect width="25.21" height="54.88" x="-12.61" y="-27.44" fill="none" rx="0" ry="0" transform="translate(374.27 261.12)"></rect></svg></svg>